<?xml version="1.0" encoding="iso-8859-1"?>
<!-- Generator: Adobe Illustrator 19.0.0, SVG Export Plug-In . SVG Version: 6.00 Build 0)  -->
<svg version="1.1" id="Layer_1" xmlns="http://www.w3.org/2000/svg" xmlns:xlink="http://www.w3.org/1999/xlink" x="0px" y="0px"
	 viewBox="0 0 512 512" style="enable-background:new 0 0 512 512;" xml:space="preserve">
<g>
	<g>
		<rect x="72.351" y="66.782" width="33.391" height="33.391"/>
	</g>
</g>
<g>
	<g>
		<rect x="105.741" y="33.391" width="33.391" height="33.391"/>
	</g>
</g>
<g>
	<g>
		<rect x="139.132" width="233.736" height="33.391"/>
	</g>
</g>
<g>
	<g>
		<rect x="372.868" y="33.391" width="33.391" height="33.391"/>
	</g>
</g>
<g>
	<g>
		<rect x="406.259" y="66.782" width="33.391" height="33.391"/>
	</g>
</g>
<g>
	<g>
		<rect x="5.569" y="211.475" width="33.391" height="66.782"/>
	</g>
</g>
<g>
	<g>
		<rect x="473.04" y="211.475" width="33.391" height="66.782"/>
	</g>
</g>
<g>
	<g>
		<rect x="72.351" y="378.429" width="33.391" height="33.391"/>
	</g>
</g>
<g>
	<g>
		<path d="M473.045,211.475V100.172h-33.391v77.912h-33.382V133.57h-0.009v-0.007h-33.391v-33.391h-33.389v-33.39L172.53,66.782
			v33.391h-33.393v33.399h-33.382v44.513h-33.4v-77.912H38.964v111.303h66.79v66.782h-66.79v100.172h33.391v-66.775h66.782v33.384
			h33.376v33.391h66.796v66.782h-66.796v-66.782h-33.376v33.391h-33.391v33.399H72.367L72.355,512h367.299v-66.782v-0.009h-33.386
			v-33.386h-0.004v-0.003h-33.39v-33.391h-0.001h-33.389v-33.391h33.389v-33.384h100.172v-33.398h-66.773v-66.782H473.045z
			 M172.527,166.953h33.391v44.521h-33.391V166.953z M339.481,278.256h-33.391v33.399H205.918v-33.399h-33.391v-33.391h33.391
			v33.391h100.172v-33.391h33.391V278.256z M339.481,211.474h-33.391v-44.521h33.391V211.474z"/>
	</g>
</g>
<g>
</g>
<g>
</g>
<g>
</g>
<g>
</g>
<g>
</g>
<g>
</g>
<g>
</g>
<g>
</g>
<g>
</g>
<g>
</g>
<g>
</g>
<g>
</g>
<g>
</g>
<g>
</g>
<g>
</g>
</svg>
